<svg xmlns="http://www.w3.org/2000/svg" xmlns:xlink="http://www.w3.org/1999/xlink" version="1.1" x="0px" y="0px" viewBox="0 0 100 125" style="enable-background:new 0 0 100 100;" xml:space="preserve"><path d="M60.6113815,75.3536987C58.0128059,77.9681625,54.1445923,79.4686432,50,79.4686432  c-4.145649,0-8.0128021-1.4994278-10.6113777-4.1149445c-1.0552101-1.0631485-2.7717094-1.0673828-3.8338013-0.0127029  s-1.0673866,2.7711792-0.0121765,3.8332672C39.1514244,82.8073959,44.4205818,84.8902817,50,84.8902817  c5.5783615,0,10.8475189-2.0828857,14.4573593-5.7160187c1.0546799-1.062088,1.0493851-2.7775345-0.0127106-3.8332672  C63.3825607,74.2852554,61.6650009,74.2916107,60.6113815,75.3536987z"/><path d="M18.7011414,23.3451233c3.3588772-1.6407871,7.1084919-2.6149883,10.8438129-2.8183002  c1.4951859-0.081007,2.6409321-1.3585873,2.5593967-2.8537731c-0.0810089-1.4941292-1.3464108-2.6467571-2.853775-2.5593967  c-4.4532642,0.2419615-8.9240017,1.4035912-12.9288158,3.3594055c-4.3944941,2.1464195-8.7614565,5.7144318-10.8676367,8.8789959  c-0.8291302,1.2463436-0.4913363,2.928957,0.7555351,3.7586174c0.4616866,0.307085,0.983202,0.4542732,1.4988933,0.4542732  c0.876781,0,1.7371488-0.4251537,2.2597232-1.2098083C11.5359974,27.9985218,15.2088423,25.0505047,18.7011414,23.3451233z"/><path d="M94.5453491,27.3520546c-2.1040649-3.1640358-6.472084-6.7320461-10.8665771-8.8789959  c-4.0048141-1.9558144-8.4755478-3.117444-12.9293442-3.3594055c-1.4793015-0.1058912-2.7733002,1.064209-2.853775,2.5593967  c-0.0815353,1.4951859,1.064209,2.7727661,2.5593948,2.8537731c3.7358551,0.2033119,7.485466,1.1775131,10.8443451,2.8183002  c3.4922943,1.7053814,7.1646118,4.6539288,8.7328644,7.0100136c0.5220413,0.7846546,1.3818817,1.2098083,2.258667,1.2098083  c0.515686,0,1.037735-0.1471882,1.4994202-0.4542732C95.0366898,30.2815418,95.3755417,28.5983982,94.5453491,27.3520546z"/><path d="M71.7363358,29.398407c-10.9163475,0.0815372-21.612442,0-21.7532768,0  c-0.1064224,0.0010586-10.8009262,0.0831261-21.7188625,0c-5.682663-0.0502987-10.4933109,1.7382088-13.5228653,5.0134315  c-2.8389492,3.0676727-4.0551119,7.2477379-3.614604,12.4231796c0.4600983,5.4068184,3.0247889,9.8627281,7.037015,12.2230492  c1.6148453,0.9509048,3.8676853,1.7948608,6.7754631,1.7948608c2.2713718,0,4.9419537-0.5156898,8.0191574-1.8975754  c9.9855614-4.4845009,12.8335152-13.1056519,14.2021599-17.2491837c0.2197266-0.6649971,0.4929237-1.4925423,0.6226425-1.7143822  C48.5492897,38.7136765,49.9158173,38.6400833,50,38.6369057c0.0841866,0.0031776,1.4507141,0.0767708,2.2163086,1.354351  c0.1302452,0.2223701,0.4034462,1.0499153,0.6236992,1.7149124c1.3681183,4.1435318,4.215538,12.7646828,14.2021599,17.2491837  c7.0153046,3.1502724,11.9180832,1.7959175,14.7930374,0.103775c4.0122223-2.3613815,6.5779724-6.8162308,7.0385971-12.2235794  c0.4405136-5.175972-0.7751236-9.3555069-3.6140747-12.4237099C82.2291183,31.1366158,77.4057617,29.3534031,71.7363358,29.398407z   M84.6029358,45.4213676l-7.9188232-11.1078758c1.914917,0.5058937,3.8899918,1.4218559,5.3914642,3.0442467  C83.870369,39.2972717,84.7116776,42.0116653,84.6029358,45.4213676z M70.7297745,33.7429352  c0.345665-0.0022507,0.691864-0.0046349,1.0383301-0.0072136c0.8380661-0.011982,1.9211349,0.0326271,3.099968,0.2076797  l9.5643845,13.416378c-0.2082748,1.4416428-0.6119919,2.7652206-1.1906204,3.9349251L70.7297745,33.7429352z"/><text x="0" y="115" fill="#000000" font-size="5px" font-weight="bold" font-family="'Helvetica Neue', Helvetica, Arial-Unicode, Arial, Sans-serif">Created by emilegraphics</text><text x="0" y="120" fill="#000000" font-size="5px" font-weight="bold" font-family="'Helvetica Neue', Helvetica, Arial-Unicode, Arial, Sans-serif">from the Noun Project</text></svg>